<svg xmlns="http://www.w3.org/2000/svg" viewBox="0 0 164 164">
  <defs>
    <linearGradient id="g" x1="42" x2="122" y1="14" y2="148">
      <stop offset="0" stop-color="#f8fbff"/>
      <stop offset="0.42" stop-color="#d7dde2"/>
      <stop offset="1" stop-color="#7b858c"/>
    </linearGradient>
  </defs>
  <rect width="164" height="164" rx="18" fill="#050505"/>
  <path d="M86 10 30 88h42l-18 66 82-94H94l18-50H86Z" fill="#050505" stroke="#050505" stroke-width="14" stroke-linejoin="miter"/>
  <path d="M86 10 30 88h42l-18 66 82-94H94l18-50H86Z" fill="url(#g)" stroke="#edf3f7" stroke-width="6" stroke-linejoin="round"/>
  <path d="M86 10 30 88h42l-18 66 82-94H94l18-50H86Z" fill="none" stroke="#060606" stroke-width="2" stroke-linejoin="round"/>
  <path d="M42 88h30L55 151l45-52" fill="none" stroke="#ffffff" stroke-width="3" stroke-linecap="square"/>
  <path d="M30 118h30M21 132h34" stroke="#28f0d4" stroke-width="5" stroke-linecap="square"/>
  <path d="M105 36h34M96 50h29" stroke="#ff2f7d" stroke-width="5" stroke-linecap="square"/>
</svg>
